<svg width="373" height="100" viewBox="0 0 373 100" fill="none" xmlns="http://www.w3.org/2000/svg">
<path d="M100.024 54.096C99.768 51.536 98.104 50.256 94.264 50.256C94.264 50.256 71.48 50.256 71.224 50.256C67.256 50.256 65.464 51.408 65.208 54.096C65.08 56.4 66.104 57.936 69.432 62.672C71.736 65.872 71.864 70.096 71.864 78.928V81.616C68.664 83.152 65.592 83.536 60.728 83.28C42.552 82.384 34.488 68.56 33.08 51.408C31.544 32.592 41.528 17.232 59.576 19.024C77.88 20.816 79.672 39.76 86.2 40.016C89.4 40.144 90.808 37.84 90.168 33.872C89.272 28.368 86.712 14.672 85.688 9.03999C84.664 3.66399 83.512 0.847992 79.16 1.616C73.4 2.768 77.752 11.088 60.216 8.144C27.704 2.768 0.312 25.808 6.456 60.624C9.912 80.72 28.216 99.152 57.4 99.152C82.36 99.152 94.264 90.576 94.264 78.032C94.264 77.264 94.264 76.368 94.264 75.472C94.264 66.768 94.392 65.872 96.568 62.672C99.512 58.064 100.152 56.4 100.024 54.096ZM181.307 69.2C173.243 48.72 161.083 17.488 160.059 15.056C158.395 10.576 156.475 8.39999 150.459 8.39999C150.075 8.39999 134.203 8.39999 131.771 8.39999C127.803 8.39999 126.011 9.67999 125.755 12.368C125.371 18.128 132.283 19.536 128.315 29.52C125.115 37.584 118.587 54.736 113.083 69.2C105.915 88.784 98.875 86.864 98.875 94.16C98.875 96.72 101.691 98 105.659 98C105.915 98 117.435 98 120.379 98C124.347 98 125.755 96.72 126.395 94.16C127.803 87.248 118.587 87.504 124.987 70.48H157.243L157.883 72.272C161.595 86.736 152.891 86.864 153.915 94.16C154.299 96.72 156.731 98 160.699 98C164.411 98 187.963 98 189.115 98C193.083 98 194.875 96.72 195.131 94.16C195.771 87.248 189.371 89.296 181.307 69.2ZM129.723 58.32L141.243 28.88L152.507 58.32H129.723ZM268.978 66.384C262.962 66.384 260.146 72.528 257.586 77.264C255.794 80.848 252.082 85.968 243.122 85.968H241.586C232.754 85.968 230.066 83.664 230.066 69.2V37.2C230.066 28.368 230.194 24.144 232.498 20.816C235.826 16.208 236.722 14.672 236.594 12.368C236.338 9.67999 234.546 8.39999 230.578 8.39999C230.45 8.39999 205.362 8.39999 205.106 8.39999C201.138 8.39999 199.346 9.67999 199.218 12.368C198.962 14.672 199.986 16.208 203.314 20.816C205.618 24.144 205.746 28.368 205.746 37.2V69.2C205.746 78.16 205.618 82.384 203.314 85.584C199.986 90.192 198.962 91.856 199.218 94.16C199.346 96.848 201.138 98 205.106 98C205.362 98 260.53 98 262.066 98C267.314 98 269.618 96.208 270.514 90.704C271.41 85.2 272.818 78.16 273.714 72.528C274.354 68.56 272.178 66.384 268.978 66.384ZM357.557 69.2C349.493 48.72 337.333 17.488 336.309 15.056C334.645 10.576 332.725 8.39999 326.709 8.39999C326.325 8.39999 310.453 8.39999 308.021 8.39999C304.053 8.39999 302.261 9.67999 302.005 12.368C301.621 18.128 308.533 19.536 304.565 29.52C301.365 37.584 294.837 54.736 289.333 69.2C282.165 88.784 275.125 86.864 275.125 94.16C275.125 96.72 277.941 98 281.909 98C282.165 98 293.685 98 296.629 98C300.597 98 302.005 96.72 302.645 94.16C304.053 87.248 294.837 87.504 301.237 70.48H333.493L334.133 72.272C337.845 86.736 329.141 86.864 330.165 94.16C330.549 96.72 332.981 98 336.949 98C340.661 98 364.213 98 365.365 98C369.333 98 371.125 96.72 371.381 94.16C372.021 87.248 365.621 89.296 357.557 69.2ZM305.973 58.32L317.493 28.88L328.757 58.32H305.973Z" fill="url(#paint0_linear_11_14)"/>
<defs>
<linearGradient id="paint0_linear_11_14" x1="15.2842" y1="12.8374" x2="299.773" y2="68.0717" gradientUnits="userSpaceOnUse">
<stop stop-color="#9515E5"/>
<stop offset="1" stop-color="#FC19A3"/>
</linearGradient>
</defs>
</svg>
