<svg width="573" height="50" viewBox="0 0 573 50" fill="none" xmlns="http://www.w3.org/2000/svg">
<path d="M65.896 4.2C65.768 4.2 59.944 4.2 58.472 4.2C56.552 4.2 55.784 4.84 55.528 6.184C54.76 9.704 60.2 9 57.448 18.6L52.136 36.84C52.136 36.84 45.224 10.984 44.712 8.744C44.136 6.504 43.688 4.2 41.384 4.2C39.592 4.2 39.592 4.2 36.904 4.2C34.6 4.2 33.768 6.44 33 9.128C32.168 11.88 24.936 36.84 24.936 36.84L19.688 18.6C17.192 9.832 23.08 10.024 22.504 6.184C22.376 4.84 21.096 4.2 19.112 4.2C17.448 4.2 4.584 4.2 4.008 4.2C2.024 4.2 1.192 4.84 1.064 6.184C0.744 9.576 3.944 8.168 7.208 18.472C10.088 27.816 14.312 41.384 14.952 43.24C16.552 48.168 18.344 49 22.568 49C27.304 49 28.584 47.784 29.8 43.56C30.376 41.64 33.896 29.928 36.008 22.696C37.544 29.224 40.68 40.744 41.192 42.984C42.408 48.04 44.52 49 48.808 49C53.544 49 54.568 47.208 55.912 42.984C56.424 41.384 63.144 18.6 63.144 18.6C66.088 8.552 69.288 9.768 69.288 6.184C69.288 4.84 67.88 4.2 65.896 4.2ZM94.2675 39.528C89.0835 44.584 78.3955 43.304 76.8595 35.112C76.8595 35.112 89.5315 35.112 92.6675 35.112C96.7635 35.112 97.5315 33.448 97.0835 29.16C96.5715 23.912 92.0915 17.384 82.6835 17.128C73.0835 16.744 64.5715 22.76 64.8915 33.768C65.2755 44.52 74.1075 49.576 83.0035 49.576C90.5555 49.576 94.9075 45.864 96.8275 41.512C97.9155 39.144 96.1235 37.736 94.2675 39.528ZM81.7235 22.312C85.3075 21.992 86.3955 24.616 86.8435 26.472C87.3555 28.392 86.6515 29.48 85.1155 29.48C83.9635 29.48 79.1635 29.48 77.6275 29.48C77.0515 29.48 76.7315 28.84 76.9235 28.136C77.4995 25.448 78.8435 22.504 81.7235 22.312ZM115.411 42.792C114.259 41.192 114.195 39.08 114.195 34.6C114.195 23.72 114.195 10.216 114.195 8.296C114.195 4.648 112.275 2.92 108.627 3.944C107.923 4.2 104.147 5.288 102.227 5.928C100.243 6.568 99.347 7.4 99.219 8.744C99.155 9.896 99.603 10.728 101.267 13.032C102.419 14.632 102.483 16.744 102.483 21.224V34.6C102.483 39.08 102.419 41.192 101.267 42.792C99.603 45.096 99.155 45.928 99.219 47.08C99.347 48.424 100.243 49 102.227 49C102.291 49 114.387 49 114.515 49C116.499 49 117.395 48.424 117.459 47.08C117.587 45.928 117.075 45.096 115.411 42.792ZM134.124 22.952C137.196 22.44 138.988 24.36 140.012 28.968C141.1 33.768 147.372 33.768 149.484 30.568C153.388 24.68 146.604 17.128 135.852 17.128C126.252 17.128 118.252 24.04 118.892 34.28C119.532 44.584 127.212 49.576 136.108 49.576C143.596 49.576 148.332 45.416 150.252 41.064C151.276 38.696 149.548 37.352 147.692 39.08C142.06 44.328 132.332 43.176 130.54 33.576C129.452 27.688 131.116 23.464 134.124 22.952ZM170.675 17.128C159.987 17.128 153.203 23.336 153.203 33.32C153.203 43.304 159.987 49.576 170.675 49.576C181.299 49.576 188.083 43.304 188.083 33.32C188.083 23.336 181.299 17.128 170.675 17.128ZM170.675 43.496C166.963 43.496 165.107 39.144 165.107 33.32C165.107 27.496 166.963 23.208 170.675 23.208C174.323 23.208 176.179 27.496 176.179 33.32C176.179 39.144 174.323 43.496 170.675 43.496ZM247.103 42.792C245.951 41.192 245.887 39.08 245.887 34.6C245.887 31.464 245.887 28.776 245.887 27.688C245.887 22.76 243.647 17.128 235.263 17.128C230.463 17.128 226.943 19.88 224.703 22.376C223.359 19.432 220.479 17.128 215.167 17.128C211.007 17.128 207.871 19.112 205.631 21.288C205.503 17.96 203.647 16.424 200.127 17.384C199.423 17.576 195.647 18.728 193.663 19.368C191.743 20.008 190.783 20.84 190.719 22.184C190.591 23.336 191.103 24.168 192.767 26.472C193.919 28.072 193.983 30.184 193.983 34.6C193.983 39.08 193.919 41.192 192.767 42.792C191.103 45.096 190.591 45.928 190.719 47.08C190.783 48.424 191.679 49 193.663 49C193.791 49 205.887 49 205.951 49C207.935 49 208.831 48.424 208.959 47.08C209.023 45.928 208.575 45.096 206.911 42.792C205.695 41.192 205.631 39.08 205.631 34.6C205.631 33.064 205.631 31.528 205.631 30.056C205.631 26.152 207.295 23.912 210.175 23.912C214.783 23.912 214.079 29.544 214.079 33.96V34.6C214.079 39.08 214.015 41.192 212.863 42.792C211.199 45.096 210.687 45.928 210.815 47.08C210.879 48.424 211.775 49 213.759 49C213.887 49 225.983 49 226.047 49C228.031 49 228.927 48.424 229.055 47.08C229.119 45.928 228.671 45.096 227.007 42.792C225.855 41.192 225.791 39.08 225.791 34.6C225.791 32.936 225.791 31.336 225.791 30.056C225.791 26.152 227.391 23.912 230.271 23.912C234.879 23.912 234.175 29.544 234.175 33.96V34.6C234.175 39.08 234.111 41.192 232.959 42.792C231.295 45.096 230.847 45.928 230.911 47.08C231.039 48.424 231.935 49 233.919 49C233.983 49 246.079 49 246.207 49C248.191 49 249.087 48.424 249.151 47.08C249.279 45.928 248.767 45.096 247.103 42.792ZM279.955 39.528C274.771 44.584 264.083 43.304 262.547 35.112C262.547 35.112 275.219 35.112 278.355 35.112C282.451 35.112 283.219 33.448 282.771 29.16C282.259 23.912 277.779 17.384 268.371 17.128C258.771 16.744 250.259 22.76 250.579 33.768C250.963 44.52 259.795 49.576 268.691 49.576C276.243 49.576 280.595 45.864 282.515 41.512C283.603 39.144 281.811 37.736 279.955 39.528ZM267.411 22.312C270.995 21.992 272.083 24.616 272.531 26.472C273.043 28.392 272.339 29.48 270.803 29.48C269.651 29.48 264.851 29.48 263.315 29.48C262.739 29.48 262.419 28.84 262.611 28.136C263.187 25.448 264.531 22.504 267.411 22.312ZM322.634 41.128C321.93 40.296 320.778 40.424 319.69 41C316.682 42.664 313.93 41.768 313.93 38.312C313.93 38.312 313.93 26.92 313.93 23.208H319.242C320.586 23.208 321.738 22.12 321.738 20.712V20.136C321.738 18.792 320.586 17.64 319.242 17.64H313.93C313.93 15.336 313.93 13.48 313.93 12.904C313.93 10.92 313.482 9.896 311.37 9.896C311.114 9.896 309.706 9.896 308.81 9.896C304.33 9.896 307.018 17.64 301.386 17.64H300.106C298.698 17.64 297.61 18.792 297.61 20.136V20.712C297.61 22.12 298.698 23.208 300.106 23.208H302.282C302.282 26.216 302.282 34.024 302.282 38.76C302.282 47.08 307.658 49.576 312.714 49.576C319.818 49.576 324.81 43.688 322.634 41.128ZM341.987 17.128C331.299 17.128 324.515 23.336 324.515 33.32C324.515 43.304 331.299 49.576 341.987 49.576C352.611 49.576 359.395 43.304 359.395 33.32C359.395 23.336 352.611 17.128 341.987 17.128ZM341.987 43.496C338.275 43.496 336.419 39.144 336.419 33.32C336.419 27.496 338.275 23.208 341.987 23.208C345.635 23.208 347.491 27.496 347.491 33.32C347.491 39.144 345.635 43.496 341.987 43.496ZM423.262 27.048C423.134 25.768 422.302 25.128 420.382 25.128C420.382 25.128 408.99 25.128 408.862 25.128C406.878 25.128 405.982 25.704 405.854 27.048C405.79 28.2 406.302 28.968 407.966 31.336C409.118 32.936 409.182 35.048 409.182 39.464V40.808C407.582 41.576 406.046 41.768 403.614 41.64C394.526 41.192 390.494 34.28 389.79 25.704C389.022 16.296 394.014 8.616 403.038 9.512C412.19 10.408 413.086 19.88 416.35 20.008C417.95 20.072 418.654 18.92 418.334 16.936C417.886 14.184 416.606 7.336 416.094 4.52C415.582 1.832 415.006 0.423996 412.83 0.807999C409.95 1.384 412.126 5.544 403.358 4.072C387.102 1.384 373.406 12.904 376.478 30.312C378.206 40.36 387.358 49.576 401.95 49.576C414.43 49.576 420.382 45.288 420.382 39.016C420.382 38.632 420.382 38.184 420.382 37.736C420.382 33.384 420.446 32.936 421.534 31.336C423.006 29.032 423.326 28.2 423.262 27.048ZM463.904 34.6C459.872 24.36 453.792 8.744 453.28 7.528C452.448 5.288 451.488 4.2 448.48 4.2C448.288 4.2 440.352 4.2 439.135 4.2C437.152 4.2 436.256 4.84 436.128 6.184C435.936 9.064 439.392 9.768 437.408 14.76C435.808 18.792 432.544 27.368 429.792 34.6C426.208 44.392 422.688 43.432 422.688 47.08C422.688 48.36 424.096 49 426.08 49C426.208 49 431.968 49 433.44 49C435.424 49 436.128 48.36 436.448 47.08C437.152 43.624 432.544 43.752 435.744 35.24H451.872L452.192 36.136C454.048 43.368 449.696 43.432 450.208 47.08C450.4 48.36 451.616 49 453.6 49C455.456 49 467.232 49 467.808 49C469.792 49 470.688 48.36 470.816 47.08C471.136 43.624 467.936 44.648 463.904 34.6ZM438.112 29.16L443.872 14.44L449.504 29.16H438.112ZM507.739 33.192C504.731 33.192 503.323 36.264 502.043 38.632C501.147 40.424 499.291 42.984 494.811 42.984H494.043C489.627 42.984 488.283 41.832 488.283 34.6V18.6C488.283 14.184 488.347 12.072 489.499 10.408C491.163 8.104 491.611 7.336 491.547 6.184C491.419 4.84 490.523 4.2 488.539 4.2C488.475 4.2 475.931 4.2 475.803 4.2C473.819 4.2 472.923 4.84 472.859 6.184C472.731 7.336 473.243 8.104 474.907 10.408C476.059 12.072 476.123 14.184 476.123 18.6V34.6C476.123 39.08 476.059 41.192 474.907 42.792C473.243 45.096 472.731 45.928 472.859 47.08C472.923 48.424 473.819 49 475.803 49C475.931 49 503.515 49 504.283 49C506.907 49 508.059 48.104 508.507 45.352C508.955 42.6 509.659 39.08 510.107 36.264C510.427 34.28 509.339 33.192 507.739 33.192ZM552.029 34.6C547.997 24.36 541.917 8.744 541.405 7.528C540.573 5.288 539.613 4.2 536.605 4.2C536.413 4.2 528.477 4.2 527.26 4.2C525.277 4.2 524.381 4.84 524.253 6.184C524.061 9.064 527.517 9.768 525.533 14.76C523.933 18.792 520.669 27.368 517.917 34.6C514.333 44.392 510.812 43.432 510.812 47.08C510.812 48.36 512.221 49 514.205 49C514.333 49 520.093 49 521.565 49C523.549 49 524.253 48.36 524.573 47.08C525.277 43.624 520.669 43.752 523.869 35.24H539.997L540.317 36.136C542.173 43.368 537.821 43.432 538.333 47.08C538.525 48.36 539.741 49 541.725 49C543.581 49 555.357 49 555.933 49C557.917 49 558.813 48.36 558.941 47.08C559.261 43.624 556.061 44.648 552.029 34.6ZM526.237 29.16L531.997 14.44L537.629 29.16H526.237ZM566.808 37.992C563.288 37.992 560.92 40.424 560.92 43.752C560.92 47.144 563.288 49.576 566.808 49.576C570.328 49.576 572.76 47.144 572.76 43.752C572.76 40.424 570.328 37.992 566.808 37.992Z" fill="url(#paint0_linear_53_23)"/>
<defs>
<linearGradient id="paint0_linear_53_23" x1="19.5368" y1="14.6789" x2="396.206" y2="175.667" gradientUnits="userSpaceOnUse">
<stop stop-color="#9515E5"/>
<stop offset="1" stop-color="#FC19A3"/>
</linearGradient>
</defs>
</svg>
